<svg width="1em" height="1em" font-size="1.5rem" fill="currentColor" style="user-select:none;display:inline-block" viewBox="0 0 24 24" xmlns="http://www.w3.org/2000/svg" data-testid="MultipleUsersIcon" class="text-2xl mr-1 text-primary font-medium"><path fill-rule="evenodd" d="M12.7143 7.9076c0 1.3077-1.0844 2.4077-2.4717 2.4077s-2.4717-1.1-2.4717-2.4077S8.8553 5.5 10.2426 5.5s2.4717 1.1 2.4717 2.4076m1.5014 0c0 2.1582-1.7788 3.9077-3.9731 3.9077s-3.9731-1.7495-3.9731-3.9077C6.2695 5.7496 8.0483 4 10.2426 4s3.9731 1.7495 3.9731 3.9076m2.3735 7.2162c-3.6311-3.4101-9.0438-3.4071-12.6844-.0148C2.155 16.7396 3.12 20 5.4813 20h9.5154c2.3467 0 3.3407-3.2345 1.5925-4.8762M4.7819 16.2579c3.1349-2.9211 7.804-2.9211 10.9262.011.8236.7735.3174 2.2282-.7114 2.2282H5.4813c-1.021 0-1.535-1.4607-.6994-2.2392m11.5044-3.4757c.1301-.3933.5548-.6067.9484-.4767 1.3435.4438 3.7739 1.6945 3.7739 4.3569 0 1.3963-1.0214 2.1463-2.0675 2.1463-.9682 0-.9682-1.5 0-1.5 1.7717-.4337-.8558-3.3712-2.1777-3.579a.75.75 0 0 1-.4771-.9475m-.6702-7.1478c-.9624-.0925-1.1135 1.3999-.1484 1.4927 1.9914.1915 1.767 2.9102-.2699 2.7143-.9624-.0926-1.1134 1.3998-.1484 1.4926 3.8917.3743 4.4702-5.0527.5667-5.6996" clip-rule="evenodd"></path></svg>