<svg width="1em" height="1em" font-size="1.5rem" fill="currentColor" viewBox="0 0 24 24" xmlns="http://www.w3.org/2000/svg" data-testid="SwapIcon" class="text-subbrand-900 transition-all duration-300 transform rotate-0" style="user-select: none; display: inline-block; transform: rotate(0deg);"><path fill-rule="evenodd" d="M14.6403 5.2477a.7483.7483 0 0 1 1.0612.0084l4.0871 4.1684a.756.756 0 0 1 .1573.8195.75.75 0 0 1-.6921.4623H6.8305c-.4145 0-.7504-.3373-.7504-.7533 0-.4161.336-.7534.7504-.7534h10.6317L14.632 6.3131a.7556.7556 0 0 1 .0083-1.0654M9.368 18.8148a.7483.7483 0 0 1-1.0611-.0084l-4.087-4.1684a.756.756 0 0 1-.1574-.8195.75.75 0 0 1 .6921-.4623H17.178c.4144 0 .7503.3373.7503.7533 0 .4161-.3359.7534-.7503.7534H6.5463l2.8301 2.8865a.7555.7555 0 0 1-.0083 1.0654" clip-rule="evenodd" style=""></path></svg>