<svg width="1em" height="1em" font-size="1.5rem" fill="currentColor" style="user-select:none;display:inline-block" viewBox="0 0 24 24" xmlns="http://www.w3.org/2000/svg" data-testid="FlightLandingIcon" class="text-2xl text-primary font-medium"><path fill-rule="evenodd" d="M5.2173 13.8015c-.9284-.256-1.5435-1.1495-1.471-2.1371l.2977-4.06c.0684-.9292 1.5634-.2157 2.0208-.0896.6782.187 1.0065 1.4444 1.2916 2.0027l3.0193.8926-.0336-6.0287c-.0103-1.8507 2.9018-.7128 3.1986.445l1.7806 6.9471 3.8156 1.0519c2.8356.7817 1.587 5.2463-1.2293 4.4699zm.5199-1.4811 12.5845 3.4693c.9319.2569 1.34-1.1999.4011-1.4587l-4.6604-1.2848-2.0019-7.8103c-.015-.0583-.1375-.0697-.1844-.085l.0408 7.3038-5.5068-1.5784c-.067-.0184-1.0833-1.4575-1.1928-1.6623 0 1.976-.3407 2.8463.5199 3.1064" clip-rule="evenodd"></path><path d="M5.087 19.8329c-.997 0-.997 1.5704 0 1.5704h14.4048c.997 0 .997-1.5704 0-1.5704z"></path></svg>