<svg width="1em" height="1em" font-size="1.5rem" fill="currentColor" style="user-select:none;display:inline-block" viewBox="0 0 24 24" xmlns="http://www.w3.org/2000/svg" data-testid="FlightTakeoffIcon" class="text-2xl text-primary font-medium"><path fill-rule="evenodd" d="M7.078 16.0292c-.9056.2536-1.8568-.1941-2.2751-1.0709l-1.7197-3.6039c-.3925-.8232 1.7887-1.4598 2.3618-.9293l1.3741.9293 2.954-.8276-2.954-5.11c-.8578-1.484 2.038-2.1387 2.9077-1.245l4.8697 5.0044 3.7213-1.042c2.7656-.7744 3.8815 3.6563 1.1347 4.4254zm-.2813-1.5234 12.2736-3.4368c.9089-.2545.5454-1.7006-.3703-1.4442l-4.5453 1.2728-5.4749-5.6264c-.0411-.0422-.1499.0106-.1963.0214l3.5786 6.1909-5.3798 1.5069c-.2187.0612-1.411-.5351-1.3994-.5111l.8335 1.71c.1268.2601.4104.3921.6803.3165" clip-rule="evenodd"></path><path d="M5.1424 19.2172c-.9712 0-.9712 1.5484 0 1.5484H19.199c.9712 0 .9712-1.5484 0-1.5484z"></path></svg>