<svg width="1em" height="1em" font-size="1.5rem" fill="currentColor" style="user-select:none;display:inline-block" viewBox="0 0 24 24" xmlns="http://www.w3.org/2000/svg" data-testid="CallFilledIcon" class="h-20 w-20 text-green-500"><path fill-rule="evenodd" d="M4.8374 11.1553c-.9438-1.996-.447-4.3806 1.2174-5.8433l.948-.8331c.9147-.8039 2.3053-.7169 3.1061.1943l.8337.95c.9064 1.0315.517 2.8902-.5184 3.8001l-.2765.243c-.2888.2538-.318.6928-.0651.9806l3.134 3.5627c.2529.2878.692.3153.9809.0614l.2554-.2244c1.047-.9202 2.9238-1.1055 3.8404-.0625l.7982.9102c.8007.9112.7084 2.3014-.2063 3.1053l-.948.8331c-1.6644 1.4627-4.093 1.6491-5.9513.4568a19.636 19.636 0 0 1-7.1485-8.1342" clip-rule="evenodd"></path></svg>