<svg width="1em" height="1em" font-size="24" fill="currentColor" viewBox="0 0 24 24" xmlns="http://www.w3.org/2000/svg" data-testid="GroupFilledIcon" class="shrink-0 text-secondary h-6 w-6" style="user-select: none; display: inline-block;"><path d="M11.9997 12.2063c1.7932 0 3.2468-1.4521 3.2468-3.2435 0-1.7913-1.4536-3.2434-3.2468-3.2434S8.753 7.1715 8.753 8.9628c0 1.7914 1.4536 3.2435 3.2467 3.2435"></path><path d="M6.728 14.9403c3.0285-2.8157 7.5311-2.8182 10.5518.0123C18.7341 16.3153 17.9072 19 15.9551 19H8.0394c-1.9643 0-2.7672-2.7062-1.3114-4.0597M19.7769 11.02c0 .9665-.7958 1.75-1.7776 1.75-.9817 0-1.7776-.7835-1.7776-1.75s.7959-1.75 1.7776-1.75 1.7776.7835 1.7776 1.75"></path><path d="M17.9628 14.2229a9.2 9.2 0 0 0-.9151-.7532c1.2276-.5231 2.5686-.0179 3.5798 1.5109.7254 1.0966.3253 3.0394-.6534 3.0394h-1.2095a3.4 3.4 0 0 0 .082-.2282c.3666-1.1473.1695-2.5819-.8838-3.5689m-14.595.7677c1.0097-1.5384 2.3515-2.044 3.5811-1.5215a9.2 9.2 0 0 0-.9026.7389c-1.0553.9811-1.2598 2.4177-.9004 3.568q.0384.123.0865.244H4.0279c-.9727 0-1.3847-1.9253-.66-3.0294M5.9974 12.77c.9817 0 1.7776-.7835 1.7776-1.75s-.796-1.75-1.7777-1.75-1.7776.7835-1.7776 1.75.7959 1.75 1.7777 1.75"></path></svg>