<svg width="1em" height="1em" font-size="1.5rem" fill="currentColor" style="user-select:none;display:inline-block" viewBox="0 0 24 24" xmlns="http://www.w3.org/2000/svg" data-testid="CalendarIcon" class="text-2xl mr-1 text-primary font-medium"><path d="M8.0313 9.25a.75.75 0 0 0 0 1.5h8.0312a.75.75 0 0 0 0-1.5z"></path><path fill-rule="evenodd" d="M8.7813 4.75a.75.75 0 0 0-1.5 0v.2188H7c-1.6569 0-3 1.3431-3 3V17c0 1.6568 1.3431 3 3 3h10c1.6569 0 3-1.3432 3-3V7.9688c0-1.6569-1.3431-3-3-3h-.4062V4.75a.75.75 0 0 0-1.5 0v.2188H8.7813zm6.3125 1.875v-.1562H8.7813v.1562a.75.75 0 0 1-1.5 0v-.1562H7c-.8284 0-1.5.6715-1.5 1.5V17c0 .8284.6716 1.5 1.5 1.5h10c.8284 0 1.5-.6716 1.5-1.5V7.9688c0-.8285-.6716-1.5-1.5-1.5h-.4062v.1562a.75.75 0 0 1-1.5 0" clip-rule="evenodd"></path></svg>