<svg width="24" height="24" fill="none" xmlns="http://www.w3.org/2000/svg"><path d="M14.893 5H2.309C1.591 5 1 5.591 1 6.309v7.6c0 .719.591 1.31 1.309 1.31H4.04c.127 0 .211.084.211.211v1.942c0 .55.634.803 1.014.423L7.84 15.26c.042-.042.084-.042.169-.042h6.883c.717 0 1.309-.591 1.309-1.31v-7.6c0-.718-.592-1.309-1.31-1.309z" stroke="#606778" stroke-width="1.5" stroke-miterlimit="10" stroke-linecap="round" stroke-linejoin="round"/><path d="M18.946 8.463h2.576c.845 0 1.478.675 1.478 1.478v7.431c0 .718-.591 1.31-1.309 1.31h-1.14a.289.289 0 00-.296.295v2.238a.588.588 0 01-1.013.422l-2.703-2.702a1.179 1.179 0 00-.844-.338h-3.463a1.244 1.244 0 01-1.266-1.267v.296" stroke="#606778" stroke-width="1.5" stroke-miterlimit="10" stroke-linecap="round" stroke-linejoin="round"/></svg>