<svg width="1em" height="1em" font-size="1.5rem" fill="currentColor" viewBox="0 0 24 24" xmlns="http://www.w3.org/2000/svg" data-testid="CustomerServiceFilledIcon" class="text-inherit hover:text-inherit text-2xl" style="user-select: none; display: inline-block;"><path fill-rule="evenodd" d="M12 6.478c-3.285 0-5.948 2.6517-5.948 5.9225S8.715 18.3229 12 18.3229h3.0599c1.595 0 2.888-1.2874 2.888-2.8756v-3.0468c0-3.2708-2.663-5.9224-5.9479-5.9224m-3.075 5.1357c1.0184 0 1.0184 1.5734 0 1.5734s-1.0185-1.5734 0-1.5734m3.0752 0c-1.0185 0-1.0185 1.5734 0 1.5734s1.0184-1.5734 0-1.5734m3.075 0c1.0185 0 1.0185 1.5734 0 1.5734s-1.0184-1.5734 0-1.5734" clip-rule="evenodd"></path><path d="M4.4188 10.2306C5.3518 6.9233 8.3926 4.4993 12 4.4993s6.6483 2.424 7.5812 5.7313c-.4569.3339-.7536.8736-.7536 1.4826v3.2575c0 2.3671 3.6724 2.3671 3.6724 0v-3.2575c0-.8807-.6206-1.6164-1.4484-1.7943C19.9731 5.9327 16.3292 3 12 3S4.027 5.9327 2.9485 9.9189c-.828.1778-1.4485.9136-1.4485 1.7943v3.2575c0 1.3554 1.4916 2.24 2.6733 1.6339 1.0607 1.758 2.8618 4.5689 5.5846 4.8002.167.3413.5153.5781.9206.5828l1.0382.0123c1.3393.0159 1.3637-2.064.0245-2.0798l-1.0382-.0123a1.037 1.037 0 0 0-.874.4596c-2.4554-.2105-4.0429-2.7307-4.9562-4.3916a1.826 1.826 0 0 0 .2996-1.0051v-3.2575c0-.609-.2967-1.1487-.7536-1.4826"></path></svg>