<svg width="24" height="24" fill="none" xmlns="http://www.w3.org/2000/svg"><path d="M13.66 2.547a1.925 1.925 0 00-2.688 0l-6.97 6.878A3.52 3.52 0 003 11.885v9.247C3 22.18 3.82 23 4.868 23h3.006c.911 0 1.64-.729 1.64-1.64V18.4a2.284 2.284 0 012.278-2.278h1.002a2.284 2.284 0 012.278 2.277v2.961c0 .911.728 1.64 1.64 1.64h2.642a2.236 2.236 0 002.232-2.232v-8.883c0-.911-.365-1.777-1.002-2.46l-6.925-6.878z" fill="#040E26" stroke="#040E26" stroke-width="1.5" stroke-miterlimit="10" stroke-linecap="round" stroke-linejoin="round"/></svg>