<svg width="24" height="24" fill="none" xmlns="http://www.w3.org/2000/svg"><path d="M8.185 10.141H4.957A1.962 1.962 0 013 8.185V4.957C3 3.88 3.88 3 4.957 3h3.228c1.076 0 1.956.88 1.956 1.957v3.228c0 1.076-.88 1.956-1.956 1.956zM19.044 10.141h-3.229a1.962 1.962 0 01-1.956-1.956V4.957c0-1.077.88-1.957 1.956-1.957h3.229C20.12 3 21 3.88 21 4.957v3.228c0 1.076-.88 1.956-1.956 1.956zM17.43 20.902c-1.957 0-3.571-1.614-3.571-3.57 0-1.957 1.614-3.571 3.57-3.571 1.957 0 3.571 1.614 3.571 3.57a3.56 3.56 0 01-3.57 3.571zM8.185 20.902H4.957A1.962 1.962 0 013 18.946v-3.229c0-1.076.88-1.956 1.957-1.956h3.228c1.076 0 1.956.88 1.956 1.956v3.229c0 1.076-.88 1.956-1.956 1.956z" stroke="#606778" stroke-width="1.5" stroke-miterlimit="10" stroke-linecap="round" stroke-linejoin="round"/></svg>