<svg width="1em" height="1em" font-size="1.5rem" fill="currentColor" style="user-select:none;display:inline-block" viewBox="0 0 24 24" xmlns="http://www.w3.org/2000/svg" data-testid="SearchIcon"><path fill-rule="evenodd" d="M16.7495 11.1111c0 3.0858-2.5115 5.5873-5.6096 5.5873-3.098 0-5.6095-2.5015-5.6095-5.5873s2.5115-5.5873 5.6095-5.5873c3.0981 0 5.6096 2.5015 5.6096 5.5873m-1.1664 5.5665c-1.2193.9669-2.7635 1.5446-4.4432 1.5446-3.943 0-7.1394-3.1837-7.1394-7.1111S7.1969 4 11.1399 4s7.1395 3.1838 7.1395 7.1111c0 1.7055-.6028 3.2707-1.6077 4.4959l3.1047 3.0923a.7596.7596 0 0 1 0 1.0775.767.767 0 0 1-1.0817 0z" clip-rule="evenodd"></path></svg>