<svg width="1em" height="1em" font-size="24" fill="currentColor" viewBox="0 0 24 24" xmlns="http://www.w3.org/2000/svg" data-testid="PassportFilledIcon" class="shrink-0 text-secondary h-6 w-6" style="user-select: none; display: inline-block;"><path fill-rule="evenodd" d="M8.179 3h7.8602C18.2267 3 20 4.7672 20 6.947v11.4891c0 1.0181-1.5843 1.0181-1.5843 0V6.9471c0-1.308-1.064-2.3683-2.3765-2.3683H8.179C7.1573 4.5788 7.1573 3 8.179 3" clip-rule="evenodd"></path><path fill-rule="evenodd" d="M4 7.8878c0-1.1626.9458-2.105 2.1124-2.105h8.947c1.1667 0 2.1124.9424 2.1124 2.105v11.0071c0 1.1626-.9457 2.1051-2.1124 2.1051h-8.947C4.9458 21 4 20.0575 4 18.8949zm6.6215 1.5575c-2.187 0-3.9598 1.7666-3.9598 3.946s1.7728 3.946 3.9598 3.946c2.1869 0 3.9597-1.7666 3.9597-3.946s-1.7728-3.946-3.9597-3.946M7.873 12.4558l.0015.0005c.7473.2371 1.4907.3839 2.2188.4382v.9936c-.7281.0543-1.4715.2011-2.2188.4382l-.0015.0005c-.201-.5869-.201-1.2841 0-1.871m2.2203-.6171c-.5482-.0465-1.1118-.1528-1.6851-.3204a2.903 2.903 0 0 1 1.6851-.9727zm1.0563.0146v-1.3077a2.903 2.903 0 0 1 1.6923.9811c-.5356.1819-1.1022.2913-1.6923.3266m0 1.0542c.7694-.0398 1.5144-.1892 2.2205-.4511.2008.5865.2008 1.2832 0 1.8698-.7061-.2619-1.4511-.4113-2.2205-.4511zm0 2.0218c.5901.0353 1.1567.1447 1.6923.3266a2.903 2.903 0 0 1-1.6923.9811zm-1.0563.0146v1.2931a2.902 2.902 0 0 1-1.6851-.9728c.5733-.1675 1.1368-.2738 1.6851-.3203" clip-rule="evenodd"></path></svg>